<svg xmlns="http://www.w3.org/2000/svg" xmlns:xlink="http://www.w3.org/1999/xlink" xmlns:lucid="lucid" width="1300" height="1142"><g transform="translate(-160 2)" lucid:page-tab-id="0_0"><path d="M346 580h34v240h130.02" stroke="#000" stroke-width="6" fill="none"/><path d="M346.08 583h-3.26l.18-2.96-.1-3.04h3.18z"/><path d="M527.3 820L513 824.64v-9.28z" stroke="#000" stroke-width="6"/><path d="M308 540c17.67 0 32 17.9 32 40s-14.33 40-32 40h-96c-17.67 0-32-17.9-32-40s14.33-40 32-40z" stroke="#000" stroke-width="6" fill="#fff"/><use xlink:href="#a" transform="matrix(1,0,0,1,185,545) translate(13.865123456790144 41.198611111111106)"/><path d="M668 780c17.67 0 32 17.9 32 40s-14.33 40-32 40h-96c-17.67 0-32-17.9-32-40s14.33-40 32-40z" stroke="#000" stroke-width="6" fill="#fff"/><use xlink:href="#b" transform="matrix(1,0,0,1,545,785) translate(1.242283950617292 41.198611111111106)"/><path d="M668 280c17.67 0 32 17.9 32 40s-14.33 40-32 40h-96c-17.67 0-32-17.9-32-40s14.33-40 32-40z" stroke="#000" stroke-width="6" fill="#fff"/><use xlink:href="#c" transform="matrix(1,0,0,1,545,285) translate(34.0317901234568 41.198611111111106)"/><path d="M346 580h34V320h130.02" stroke="#000" stroke-width="6" fill="none"/><path d="M346.08 583h-3.26l.18-2.96-.1-3.04h3.18z"/><path d="M527.3 320L513 324.64v-9.28z" stroke="#000" stroke-width="6"/><path d="M1028 660c17.67 0 32 17.9 32 40s-14.33 40-32 40h-96c-17.67 0-32-17.9-32-40s14.33-40 32-40zM1028 920c17.67 0 32 17.9 32 40s-14.33 40-32 40h-96c-17.67 0-32-17.9-32-40s14.33-40 32-40zM1408 100c17.67 0 32 17.9 32 40s-14.33 40-32 40h-96c-17.67 0-32-17.9-32-40s14.33-40 32-40zM1408 220c17.67 0 32 17.9 32 40s-14.33 40-32 40h-96c-17.67 0-32-17.9-32-40s14.33-40 32-40zM1028 160c17.67 0 32 17.9 32 40s-14.33 40-32 40h-96c-17.67 0-32-17.9-32-40s14.33-40 32-40zM1028 400c17.67 0 32 17.9 32 40s-14.33 40-32 40h-96c-17.67 0-32-17.9-32-40s14.33-40 32-40z" stroke="#000" stroke-width="6" fill="#fff"/><path d="M706 320h34V200h130.02" stroke="#000" stroke-width="6" fill="none"/><path d="M706.08 323h-3.26l.18-2.96-.1-3.04h3.18z"/><path d="M887.3 200L873 204.64v-9.28z" stroke="#000" stroke-width="6"/><path d="M706 320h34v120h130.02" stroke="#000" stroke-width="6" fill="none"/><path d="M706.08 323h-3.26l.18-2.96-.1-3.04h3.18z"/><path d="M887.3 440L873 444.64v-9.28z" stroke="#000" stroke-width="6"/><path d="M706 820h34V700h130.02" stroke="#000" stroke-width="6" fill="none"/><path d="M706.08 823h-3.26l.18-2.96-.1-3.04h3.18z"/><path d="M887.3 700L873 704.64v-9.28z" stroke="#000" stroke-width="6"/><path d="M706 820h34v140h130.02" stroke="#000" stroke-width="6" fill="none"/><path d="M706.08 823h-3.26l.18-2.96-.1-3.04h3.18z"/><path d="M887.3 960L873 964.64v-9.28z" stroke="#000" stroke-width="6"/><path d="M1408 340c17.67 0 32 17.9 32 40s-14.33 40-32 40h-96c-17.67 0-32-17.9-32-40s14.33-40 32-40zM1408 460c17.67 0 32 17.9 32 40s-14.33 40-32 40h-96c-17.67 0-32-17.9-32-40s14.33-40 32-40z" stroke="#000" stroke-width="6" fill="#fff"/><path d="M1066 200h24v-60h160.02" stroke="#000" stroke-width="6" fill="none"/><path d="M1066.08 203h-3.26l.18-2.96-.1-3.04h3.18z"/><path d="M1267.3 140l-14.28 4.64v-9.28z" stroke="#000" stroke-width="6"/><path d="M1066 200h24v60h160.02" stroke="#000" stroke-width="6" fill="none"/><path d="M1066.08 203h-3.26l.18-2.96-.1-3.04h3.18z"/><path d="M1267.3 260l-14.28 4.64v-9.28z" stroke="#000" stroke-width="6"/><path d="M1066 440h24v-60h160.02" stroke="#000" stroke-width="6" fill="none"/><path d="M1066.08 443h-3.26l.18-2.96-.1-3.04h3.18z"/><path d="M1267.3 380l-14.28 4.64v-9.28z" stroke="#000" stroke-width="6"/><path d="M1066 440h24v60h160.02" stroke="#000" stroke-width="6" fill="none"/><path d="M1066.08 443h-3.26l.18-2.96-.1-3.04h3.18z"/><path d="M1267.3 500l-14.28 4.64v-9.28z" stroke="#000" stroke-width="6"/><path d="M1408 600c17.67 0 32 17.9 32 40s-14.33 40-32 40h-96c-17.67 0-32-17.9-32-40s14.33-40 32-40zM1408 720c17.67 0 32 17.9 32 40s-14.33 40-32 40h-96c-17.67 0-32-17.9-32-40s14.33-40 32-40zM1408 860c17.67 0 32 17.9 32 40s-14.33 40-32 40h-96c-17.67 0-32-17.9-32-40s14.33-40 32-40zM1408 980c17.67 0 32 17.9 32 40s-14.33 40-32 40h-96c-17.67 0-32-17.9-32-40s14.33-40 32-40z" stroke="#000" stroke-width="6" fill="#fff"/><path d="M1066 700h24v-60h160.02" stroke="#000" stroke-width="6" fill="none"/><path d="M1066.08 703h-3.26l.18-2.96-.1-3.04h3.18z"/><path d="M1267.3 640l-14.28 4.64v-9.28z" stroke="#000" stroke-width="6"/><path d="M1066 700h24v60h160.02" stroke="#000" stroke-width="6" fill="none"/><path d="M1066.08 703h-3.26l.18-2.96-.1-3.04h3.18z"/><path d="M1267.3 760l-14.28 4.64v-9.28z" stroke="#000" stroke-width="6"/><path d="M1066 960h24v-60h160.02" stroke="#000" stroke-width="6" fill="none"/><path d="M1066.08 963h-3.26l.18-2.96-.1-3.04h3.18z"/><path d="M1267.3 900l-14.28 4.64v-9.28z" stroke="#000" stroke-width="6"/><path d="M1066 960h24v60h160.02" stroke="#000" stroke-width="6" fill="none"/><path d="M1066.08 963h-3.26l.18-2.96-.1-3.04h3.18z"/><path d="M1267.3 1020l-14.28 4.64v-9.28z" stroke="#000" stroke-width="6"/><path d="M460 32v12.2m0 24.4v24.42m0 24.4v24.42m0 24.4v24.42m0 24.4v24.42m0 24.4v24.42m0 24.4v24.4m0 24.42v24.4m0 24.42v24.4m0 24.42v24.4m0 24.42v24.4m0 24.42v24.4m0 24.4v24.42m0 24.4v24.42m0 24.4v24.42m0 24.4v24.42m0 24.4v24.42m0 24.4v24.4m0 24.42v24.4m0 24.42v24.4m0 24.42v24.4m0 24.42v24.4m0 24.42v12.2M460 32.08V29M460 1105.92v3.08" stroke="#000" stroke-width="6" fill="none"/><defs><path d="M199 0l-22-63H83L61 0H9l90-248h61L250 0h-51zm-33-102l-36-108c-10 38-24 72-36 108h72" id="d"/><path d="M88-194c31-1 46 15 58 34l-1-101h50l1 261h-48c-2-10 0-23-3-31C134-8 116 4 84 4 32 4 16-41 15-95c0-56 19-97 73-99zm17 164c33 0 40-30 41-66 1-37-9-64-41-64s-38 30-39 65c0 43 13 65 39 65" id="e"/><path d="M128 0H69L1-190h53L99-40l48-150h52" id="f"/><path d="M185-48c-13 30-37 53-82 52C43 2 14-33 14-96s30-98 90-98c62 0 83 45 84 108H66c0 31 8 55 39 56 18 0 30-7 34-22zm-45-69c5-46-57-63-70-21-2 6-4 13-4 21h74" id="g"/><path d="M135-150c-39-12-60 13-60 57V0H25l-1-190h47c2 13-1 29 3 40 6-28 27-53 61-41v41" id="h"/><path d="M137-138c1-29-70-34-71-4 15 46 118 7 119 86 1 83-164 76-172 9l43-7c4 19 20 25 44 25 33 8 57-30 24-41C81-84 22-81 20-136c-2-80 154-74 161-7" id="i"/><path d="M25-224v-37h50v37H25zM25 0v-190h50V0H25" id="j"/><path d="M115-3C79 11 28 4 28-45v-112H4v-33h27l15-45h31v45h36v33H77v99c-1 23 16 31 38 25v30" id="k"/><path d="M123 10C108 53 80 86 19 72V37c35 8 53-11 59-39L3-190h52l48 148c12-52 28-100 44-148h51" id="l"/><g id="a"><use transform="matrix(0.07469135802469135,0,0,0.07469135802469135,0,0)" xlink:href="#d"/><use transform="matrix(0.07469135802469135,0,0,0.07469135802469135,19.34506172839506,0)" xlink:href="#e"/><use transform="matrix(0.07469135802469135,0,0,0.07469135802469135,35.70246913580246,0)" xlink:href="#f"/><use transform="matrix(0.07469135802469135,0,0,0.07469135802469135,50.640740740740725,0)" xlink:href="#g"/><use transform="matrix(0.07469135802469135,0,0,0.07469135802469135,65.57901234567899,0)" xlink:href="#h"/><use transform="matrix(0.07469135802469135,0,0,0.07469135802469135,76.03580246913577,0)" xlink:href="#i"/><use transform="matrix(0.07469135802469135,0,0,0.07469135802469135,90.97407407407404,0)" xlink:href="#j"/><use transform="matrix(0.07469135802469135,0,0,0.07469135802469135,98.44320987654318,0)" xlink:href="#k"/><use transform="matrix(0.07469135802469135,0,0,0.07469135802469135,107.33148148148145,0)" xlink:href="#l"/></g><path d="M24-248c120-7 223 5 221 122C244-46 201 0 124 0H24v-248zM76-40c74 7 117-18 117-86 0-67-45-88-117-82v168" id="m"/><path d="M135-194c53 0 70 44 70 98 0 56-19 98-73 100-31 1-45-17-59-34 3 33 2 69 2 105H25l-1-265h48c2 10 0 23 3 31 11-24 29-35 60-35zM114-30c33 0 39-31 40-66 0-38-9-64-40-64-56 0-55 130 0 130" id="n"/><path d="M133-34C117-15 103 5 69 4 32 3 11-16 11-54c-1-60 55-63 116-61 1-26-3-47-28-47-18 1-26 9-28 27l-52-2c7-38 36-58 82-57s74 22 75 68l1 82c-1 14 12 18 25 15v27c-30 8-71 5-69-32zm-48 3c29 0 43-24 42-57-32 0-66-3-65 30 0 17 8 27 23 27" id="o"/><path d="M110-194c64 0 96 36 96 99 0 64-35 99-97 99-61 0-95-36-95-99 0-62 34-99 96-99zm-1 164c35 0 45-28 45-65 0-40-10-65-43-65-34 0-45 26-45 65 0 36 10 65 43 65" id="p"/><path d="M135-194c87-1 58 113 63 194h-50c-7-57 23-157-34-157-59 0-34 97-39 157H25l-1-190h47c2 12-1 28 3 38 12-26 28-41 61-42" id="q"/><g id="b"><use transform="matrix(0.07469135802469135,0,0,0.07469135802469135,0,0)" xlink:href="#m"/><use transform="matrix(0.07469135802469135,0,0,0.07469135802469135,19.34506172839506,0)" xlink:href="#g"/><use transform="matrix(0.07469135802469135,0,0,0.07469135802469135,34.28333333333333,0)" xlink:href="#n"/><use transform="matrix(0.07469135802469135,0,0,0.07469135802469135,50.64074074074074,0)" xlink:href="#h"/><use transform="matrix(0.07469135802469135,0,0,0.07469135802469135,61.09753086419752,0)" xlink:href="#j"/><use transform="matrix(0.07469135802469135,0,0,0.07469135802469135,68.56666666666666,0)" xlink:href="#f"/><use transform="matrix(0.07469135802469135,0,0,0.07469135802469135,83.50493827160493,0)" xlink:href="#o"/><use transform="matrix(0.07469135802469135,0,0,0.07469135802469135,98.4432098765432,0)" xlink:href="#k"/><use transform="matrix(0.07469135802469135,0,0,0.07469135802469135,107.33148148148146,0)" xlink:href="#j"/><use transform="matrix(0.07469135802469135,0,0,0.07469135802469135,114.8006172839506,0)" xlink:href="#p"/><use transform="matrix(0.07469135802469135,0,0,0.07469135802469135,131.158024691358,0)" xlink:href="#q"/></g><path d="M136-208V0H84v-208H4v-40h212v40h-80" id="r"/><path d="M114-157C55-157 80-60 75 0H25v-261h50l-1 109c12-26 28-41 61-42 86-1 58 113 63 194h-50c-7-57 23-157-34-157" id="s"/><g id="c"><use transform="matrix(0.07469135802469135,0,0,0.07469135802469135,0,0)" xlink:href="#r"/><use transform="matrix(0.07469135802469135,0,0,0.07469135802469135,16.357407407407404,0)" xlink:href="#s"/><use transform="matrix(0.07469135802469135,0,0,0.07469135802469135,32.71481481481481,0)" xlink:href="#h"/><use transform="matrix(0.07469135802469135,0,0,0.07469135802469135,43.1716049382716,0)" xlink:href="#g"/><use transform="matrix(0.07469135802469135,0,0,0.07469135802469135,58.109876543209865,0)" xlink:href="#o"/><use transform="matrix(0.07469135802469135,0,0,0.07469135802469135,73.04814814814813,0)" xlink:href="#k"/></g></defs></g></svg>